ply
format ascii 1.0
comment Created by Blender 2.80 (sub 75) - www.blender.org, source file: 'stairs.blend'
element vertex 186
property float x
property float y
property float z
property float nx
property float ny
property float nz
property float s
property float t
element face 178
property list uchar uint vertex_indices
end_header
-1.000000 0.000000 -1.000000 -0.000000 -0.000000 -1.000000 0.375000 0.125000
-1.000000 5.000000 -1.000000 -0.000000 -0.000000 -1.000000 0.375000 0.000000
1.530409 5.000000 -1.000000 -0.000000 -0.000000 -1.000000 0.625000 0.000000
1.530409 -5.000000 -1.000000 0.000000 0.000000 -1.000000 0.625000 0.250000
-1.000000 -5.000000 -1.000000 0.000000 0.000000 -1.000000 0.375000 0.250000
1.530409 5.000000 -1.000000 -0.000000 1.000000 0.000000 0.375000 0.500000
-1.000000 5.000000 -1.000000 -0.000000 1.000000 0.000000 0.375000 0.250000
-1.000000 5.000000 -0.500000 -0.000000 1.000000 0.000000 0.437500 0.250000
-1.000000 5.000000 0.000000 0.000000 0.000000 0.000000 0.500000 0.250000
-1.000000 5.000000 0.500000 0.000000 0.000000 0.000000 0.562500 0.250000
-1.000000 5.000000 1.000000 0.000000 0.000000 0.000000 0.625000 0.250000
-1.000000 5.000000 0.000000 0.000000 1.000000 0.000000 0.500000 0.250000
-1.000000 5.000000 1.000000 0.000000 1.000000 -0.000000 0.625000 0.250000
1.530409 5.000000 1.000000 0.000000 1.000000 -0.000000 0.625000 0.500000
-8.500000 5.000000 -0.500000 0.000000 1.000000 0.000000 0.437500 0.250000
-8.500000 5.000000 -1.000000 0.000000 1.000000 0.000000 0.375000 0.250000
-11.000000 5.000000 -1.000000 0.000000 1.000000 0.000000 0.375000 0.250000
-11.000000 5.000000 -0.500000 -0.000000 1.000000 0.000000 0.437500 0.250000
-1.000000 -5.000000 -1.000000 -0.000000 -1.000000 -0.000000 0.375000 1.000000
1.530409 -5.000000 -1.000000 -0.000000 -1.000000 -0.000000 0.375000 0.750000
1.530409 -5.000000 1.000000 -0.000000 -1.000000 -0.000000 0.625000 0.750000
-1.000000 -5.000000 1.000000 0.000000 -1.000000 0.000000 0.625000 1.000000
-1.000000 -5.000000 0.500000 0.000000 -1.000000 0.000000 0.562500 1.000000
-1.000000 -5.000000 0.000000 0.000000 0.000000 0.000000 0.500000 1.000000
-1.000000 -5.000000 -0.500000 0.000000 0.000000 0.000000 0.437500 1.000000
-1.000000 -5.000000 -1.000000 0.000000 0.000000 0.000000 0.375000 1.000000
-1.000000 -5.000000 0.000000 0.000000 -1.000000 0.000000 0.500000 1.000000
1.530409 -5.000000 1.000000 -0.000000 0.000000 1.000000 0.125000 0.750000
1.530409 5.000000 1.000000 -0.000000 0.000000 1.000000 0.125000 0.500000
-1.000000 5.000000 1.000000 -0.000000 0.000000 1.000000 0.375000 0.500000
-1.000000 0.000000 1.000000 0.000000 -0.000000 1.000000 0.375000 0.625000
-1.000000 -5.000000 1.000000 0.000000 -0.000000 1.000000 0.375000 0.750000
1.530409 5.000000 -1.000000 1.000000 -0.000000 0.000000 0.625000 0.500000
1.530409 5.000000 1.000000 1.000000 -0.000000 0.000000 0.875000 0.500000
1.530409 -5.000000 1.000000 1.000000 -0.000000 0.000000 0.875000 0.750000
1.530409 -5.000000 -1.000000 1.000000 -0.000000 0.000000 0.625000 0.750000
-11.000000 0.000000 0.500000 -1.000000 -0.000000 -0.000000 0.562500 0.625000
-11.000000 0.000000 1.000000 -1.000000 -0.000000 -0.000000 0.625000 0.625000
-11.000000 5.000000 1.000000 -1.000000 -0.000000 -0.000000 0.625000 0.750000
-11.000000 5.000000 0.500000 -1.000000 -0.000000 0.000000 0.562500 0.750000
-8.500000 -5.000000 0.500000 0.000000 -1.000000 0.000000 0.562500 1.000000
-8.500000 -5.000000 1.000000 0.000000 -1.000000 0.000000 0.625000 1.000000
-11.000000 -5.000000 1.000000 0.000000 -1.000000 0.000000 0.625000 1.000000
-11.000000 -5.000000 0.500000 0.000000 -1.000000 0.000000 0.562500 1.000000
-8.500000 0.000000 -1.000000 0.000000 0.000000 -1.000000 0.375000 0.125000
-8.500000 -5.000000 -1.000000 0.000000 0.000000 -1.000000 0.375000 0.250000
-11.000000 -5.000000 -1.000000 0.000000 0.000000 -1.000000 0.375000 0.250000
-11.000000 0.000000 -1.000000 0.000000 0.000000 -1.000000 0.375000 0.125000
-8.500000 5.000000 1.000000 -0.000000 1.000000 0.000000 0.625000 0.250000
-11.000000 5.000000 1.000000 -0.000000 1.000000 0.000000 0.625000 0.250000
-11.000000 5.000000 9.010720 -0.000000 1.000000 0.000000 0.625000 0.250000
-8.500000 5.000000 9.010720 0.000000 1.000000 0.000000 0.625000 0.250000
-3.500000 0.000000 1.000000 1.000000 0.000000 0.000000 0.375000 0.625000
-3.500000 5.000000 1.000000 1.000000 0.000000 0.000000 0.375000 0.500000
-3.500000 5.000000 4.994204 1.000000 0.000000 0.000000 0.375000 0.500000
-3.500000 0.000000 4.994204 1.000000 -0.000000 0.000000 0.375000 0.625000
-3.500000 0.000000 -1.000000 0.000000 0.000000 -1.000000 0.375000 0.125000
-3.500000 -5.000000 -1.000000 0.000000 0.000000 -1.000000 0.375000 0.250000
-6.000000 -5.000000 -1.000000 0.000000 0.000000 -1.000000 0.375000 0.250000
-6.000000 0.000000 -1.000000 0.000000 0.000000 -1.000000 0.375000 0.125000
-8.500000 -5.000000 -0.500000 0.000000 -1.000000 0.000000 0.437500 1.000000
-8.500000 -5.000000 0.000000 0.000000 -1.000000 0.000000 0.500000 1.000000
-11.000000 -5.000000 0.000000 0.000000 -1.000000 0.000000 0.500000 1.000000
-11.000000 -5.000000 -0.500000 0.000000 -1.000000 0.000000 0.437500 1.000000
-3.500000 -5.000000 -0.500000 0.000000 -1.000000 0.000000 0.437500 1.000000
-3.500000 -5.000000 0.000000 0.000000 -1.000000 0.000000 0.500000 1.000000
-6.000000 -5.000000 0.000000 0.000000 -1.000000 0.000000 0.500000 1.000000
-6.000000 -5.000000 -0.500000 0.000000 -1.000000 0.000000 0.437500 1.000000
-3.500000 -5.000000 0.500000 0.000000 -1.000000 0.000000 0.562500 1.000000
-3.500000 -5.000000 1.000000 0.000000 -1.000000 0.000000 0.625000 1.000000
-6.000000 -5.000000 1.000000 0.000000 -1.000000 0.000000 0.625000 1.000000
-6.000000 -5.000000 0.500000 0.000000 -1.000000 0.000000 0.562500 1.000000
-11.000000 0.000000 -0.500000 -1.000000 -0.000000 -0.000000 0.437500 0.625000
-11.000000 0.000000 0.000000 -1.000000 -0.000000 -0.000000 0.500000 0.625000
-11.000000 5.000000 0.000000 -1.000000 -0.000000 -0.000000 0.500000 0.750000
-11.000000 5.000000 -0.500000 -1.000000 -0.000000 0.000000 0.437500 0.750000
-8.500000 5.000000 0.500000 0.000000 1.000000 0.000000 0.562500 0.250000
-8.500000 5.000000 0.000000 0.000000 1.000000 0.000000 0.500000 0.250000
-11.000000 5.000000 0.000000 0.000000 1.000000 0.000000 0.500000 0.250000
-11.000000 5.000000 0.500000 -0.000000 1.000000 0.000000 0.562500 0.250000
-3.500000 5.000000 0.500000 0.000000 1.000000 0.000000 0.562500 0.250000
-3.500000 5.000000 0.000000 0.000000 1.000000 0.000000 0.500000 0.250000
-6.000000 5.000000 0.000000 0.000000 1.000000 0.000000 0.500000 0.250000
-6.000000 5.000000 0.500000 -0.000000 1.000000 0.000000 0.562500 0.250000
-3.500000 5.000000 -0.500000 0.000000 1.000000 0.000000 0.437500 0.250000
-3.500000 5.000000 -1.000000 0.000000 1.000000 0.000000 0.375000 0.250000
-6.000000 5.000000 -1.000000 0.000000 1.000000 0.000000 0.375000 0.250000
-6.000000 5.000000 -0.500000 -0.000000 1.000000 0.000000 0.437500 0.250000
-3.500000 5.000000 1.000000 0.000000 1.000000 0.000000 0.625000 0.250000
-6.000000 5.000000 1.000000 -0.000000 1.000000 0.000000 0.625000 0.250000
-1.000000 5.000000 0.500000 0.000000 1.000000 0.000000 0.562500 0.250000
-11.000000 0.000000 -1.000000 -1.000000 -0.000000 -0.000000 0.375000 0.625000
-11.000000 5.000000 -1.000000 -1.000000 -0.000000 0.000000 0.375000 0.750000
-11.000000 -5.000000 -1.000000 -1.000000 -0.000000 -0.000000 0.375000 0.500000
-11.000000 -5.000000 -0.500000 -1.000000 -0.000000 -0.000000 0.437500 0.500000
-11.000000 -5.000000 0.000000 -1.000000 -0.000000 -0.000000 0.500000 0.500000
-3.500000 -5.000000 -1.000000 0.000000 -1.000000 0.000000 0.375000 1.000000
-6.000000 -5.000000 -1.000000 0.000000 -1.000000 0.000000 0.375000 1.000000
-1.000000 -5.000000 -0.500000 0.000000 -1.000000 0.000000 0.437500 1.000000
-8.500000 -5.000000 -1.000000 0.000000 -1.000000 0.000000 0.375000 1.000000
-11.000000 -5.000000 -1.000000 0.000000 -1.000000 0.000000 0.375000 1.000000
-3.500000 5.000000 -1.000000 0.000000 0.000000 -1.000000 0.375000 0.000000
-6.000000 5.000000 -1.000000 0.000000 0.000000 -1.000000 0.375000 0.000000
-3.500000 -5.000000 1.000000 1.000000 0.000000 0.000000 0.375000 0.750000
-3.500000 -5.000000 4.994204 1.000000 -0.000000 0.000000 0.375000 0.750000
-3.500000 5.000000 1.000000 -1.000000 0.000000 0.000000 0.375000 0.500000
-3.500000 0.000000 1.000000 -1.000000 0.000000 0.000000 0.375000 0.625000
-3.500000 0.000000 3.008259 -1.000000 0.000000 0.000000 0.375000 0.625000
-3.500000 5.000000 3.008259 -1.000000 -0.000000 -0.000000 0.375000 0.500000
-3.500000 -5.000000 1.000000 -1.000000 0.000000 0.000000 0.375000 0.750000
-3.500000 -5.000000 3.008259 -1.000000 0.000000 0.000000 0.375000 0.750000
-8.500000 -5.000000 9.010720 -0.000000 -1.000000 -0.000000 0.625000 1.000000
-11.000000 -5.000000 9.010720 0.000000 -1.000000 -0.000000 0.625000 1.000000
-8.500000 5.000000 6.979132 -0.000000 1.000000 0.000000 0.625000 0.250000
-6.000000 5.000000 6.979132 0.000000 1.000000 0.000000 0.625000 0.250000
-6.000000 -5.000000 6.979132 -0.000000 -1.000000 -0.000000 0.625000 1.000000
-8.500000 -5.000000 6.979132 0.000000 -1.000000 -0.000000 0.625000 1.000000
-8.500000 5.000000 -1.000000 0.000000 0.000000 -1.000000 0.375000 0.000000
-11.000000 5.000000 -1.000000 0.000000 0.000000 -1.000000 0.375000 0.000000
-11.000000 -5.000000 0.500000 -1.000000 -0.000000 -0.000000 0.562500 0.500000
-11.000000 -5.000000 1.000000 -1.000000 -0.000000 -0.000000 0.625000 0.500000
-1.000000 -5.000000 3.008259 -0.000000 0.000000 1.000000 0.375000 0.750000
-1.000000 0.000000 3.008259 -0.000000 0.000000 1.000000 0.375000 0.625000
-3.500000 0.000000 3.008259 -0.000000 0.000000 1.000000 0.375000 0.625000
-3.500000 -5.000000 3.008259 -0.000000 0.000000 1.000000 0.375000 0.750000
-1.000000 5.000000 3.008259 -0.000000 0.000000 1.000000 0.375000 0.500000
-3.500000 5.000000 3.008259 -0.000000 0.000000 1.000000 0.375000 0.500000
-3.500000 5.000000 3.008259 -0.000000 1.000000 0.000000 0.625000 0.250000
-1.000000 5.000000 3.008259 0.000000 1.000000 0.000000 0.625000 0.250000
-1.000000 -5.000000 3.008259 -0.000000 -1.000000 -0.000000 0.625000 1.000000
-3.500000 -5.000000 3.008259 0.000000 -1.000000 -0.000000 0.625000 1.000000
-1.000000 0.000000 1.000000 1.000000 0.000000 0.000000 0.375000 0.625000
-1.000000 5.000000 1.000000 1.000000 0.000000 0.000000 0.375000 0.500000
-1.000000 5.000000 3.008259 1.000000 0.000000 0.000000 0.375000 0.500000
-1.000000 0.000000 3.008259 1.000000 -0.000000 0.000000 0.375000 0.625000
-1.000000 -5.000000 1.000000 1.000000 0.000000 0.000000 0.375000 0.750000
-1.000000 -5.000000 3.008259 1.000000 -0.000000 0.000000 0.375000 0.750000
-3.500000 0.000000 4.994204 -0.000000 0.000000 1.000000 0.375000 0.625000
-3.500000 5.000000 4.994204 -0.000000 0.000000 1.000000 0.375000 0.500000
-6.000000 5.000000 4.994204 -0.000000 0.000000 1.000000 0.375000 0.500000
-6.000000 0.000000 4.994204 -0.000000 0.000000 1.000000 0.375000 0.625000
-3.500000 -5.000000 4.994204 -0.000000 0.000000 1.000000 0.375000 0.750000
-6.000000 -5.000000 4.994204 -0.000000 0.000000 1.000000 0.375000 0.750000
-6.000000 0.000000 1.000000 -1.000000 0.000000 0.000000 0.375000 0.625000
-6.000000 -5.000000 1.000000 -1.000000 0.000000 0.000000 0.375000 0.750000
-6.000000 -5.000000 4.994204 -1.000000 0.000000 0.000000 0.375000 0.750000
-6.000000 0.000000 4.994204 -1.000000 -0.000000 -0.000000 0.375000 0.625000
-3.500000 -5.000000 4.994204 -0.000000 -1.000000 -0.000000 0.625000 1.000000
-6.000000 -5.000000 4.994204 0.000000 -1.000000 -0.000000 0.625000 1.000000
-6.000000 5.000000 4.994204 -0.000000 1.000000 0.000000 0.625000 0.250000
-3.500000 5.000000 4.994204 0.000000 1.000000 0.000000 0.625000 0.250000
-6.000000 5.000000 1.000000 -1.000000 0.000000 0.000000 0.375000 0.500000
-6.000000 5.000000 4.994204 -1.000000 -0.000000 -0.000000 0.375000 0.500000
-6.000000 -5.000000 6.979132 -0.000000 0.000000 1.000000 0.375000 0.750000
-6.000000 -0.000000 6.979132 -0.000000 0.000000 1.000000 0.375000 0.625000
-8.500000 -0.000000 6.979132 -0.000000 0.000000 1.000000 0.375000 0.625000
-8.500000 -5.000000 6.979132 -0.000000 0.000000 1.000000 0.375000 0.750000
-6.000000 5.000000 6.979132 -0.000000 0.000000 1.000000 0.375000 0.500000
-8.500000 5.000000 6.979132 -0.000000 0.000000 1.000000 0.375000 0.500000
-8.500000 5.000000 1.000000 -1.000000 0.000000 0.000000 0.375000 0.500000
-8.500000 0.000000 1.000000 -1.000000 0.000000 0.000000 0.375000 0.625000
-8.500000 -0.000000 6.979132 -1.000000 0.000000 0.000000 0.375000 0.625000
-8.500000 5.000000 6.979132 -1.000000 -0.000000 -0.000000 0.375000 0.500000
-6.000000 -5.000000 1.000000 1.000000 0.000000 0.000000 0.375000 0.750000
-6.000000 0.000000 1.000000 1.000000 0.000000 0.000000 0.375000 0.625000
-6.000000 -0.000000 6.979132 1.000000 0.000000 0.000000 0.375000 0.625000
-6.000000 -5.000000 6.979132 1.000000 -0.000000 0.000000 0.375000 0.750000
-6.000000 5.000000 1.000000 1.000000 0.000000 0.000000 0.375000 0.500000
-6.000000 5.000000 6.979132 1.000000 0.000000 0.000000 0.375000 0.500000
-8.500000 -5.000000 1.000000 -1.000000 0.000000 0.000000 0.375000 0.750000
-8.500000 -5.000000 6.979132 -1.000000 0.000000 0.000000 0.375000 0.750000
-8.500000 0.000000 9.010720 -0.000000 0.000000 1.000000 0.375000 0.625000
-8.500000 5.000000 9.010720 -0.000000 0.000000 1.000000 0.375000 0.500000
-11.000000 5.000000 9.010720 -0.000000 0.000000 1.000000 0.375000 0.500000
-11.000000 0.000000 9.010720 -0.000000 0.000000 1.000000 0.375000 0.625000
-8.500000 -5.000000 9.010720 -0.000000 0.000000 1.000000 0.375000 0.750000
-11.000000 -5.000000 9.010720 -0.000000 0.000000 1.000000 0.375000 0.750000
-8.500000 0.000000 1.000000 1.000000 0.000000 0.000000 0.375000 0.625000
-8.500000 5.000000 1.000000 1.000000 0.000000 0.000000 0.375000 0.500000
-8.500000 5.000000 9.010720 1.000000 0.000000 0.000000 0.375000 0.500000
-8.500000 0.000000 9.010720 1.000000 -0.000000 0.000000 0.375000 0.625000
-11.000000 0.000000 9.010720 -1.000000 0.000000 0.000000 0.625000 0.625000
-11.000000 5.000000 9.010720 -1.000000 -0.000000 -0.000000 0.625000 0.750000
-11.000000 -5.000000 9.010720 -1.000000 0.000000 0.000000 0.625000 0.500000
-8.500000 -5.000000 1.000000 1.000000 0.000000 0.000000 0.375000 0.750000
-8.500000 -5.000000 9.010720 1.000000 -0.000000 0.000000 0.375000 0.750000
3 0 1 2
3 2 3 4
3 2 4 0
3 5 6 7
3 8 9 10
3 5 7 11
3 12 13 5
3 11 12 5
3 14 15 16
3 14 16 17
3 18 19 20
3 20 21 22
3 23 24 25
3 20 22 26
3 20 26 18
3 27 28 29
3 30 31 27
3 29 30 27
3 32 33 34
3 32 34 35
3 36 37 38
3 36 38 39
3 40 41 42
3 40 42 43
3 44 45 46
3 44 46 47
3 48 49 50
3 48 50 51
3 52 53 54
3 52 54 55
3 56 57 58
3 56 58 59
3 60 61 62
3 60 62 63
3 64 65 66
3 64 66 67
3 68 69 70
3 68 70 71
3 72 73 74
3 72 74 75
3 76 77 78
3 76 78 79
3 80 81 82
3 80 82 83
3 84 85 86
3 84 86 87
3 81 84 87
3 81 87 82
3 11 7 84
3 11 84 81
3 7 6 85
3 7 85 84
3 88 80 83
3 88 83 89
3 12 90 80
3 12 80 88
3 90 11 81
3 90 81 80
3 48 76 79
3 48 79 49
3 89 83 76
3 89 76 48
3 83 82 77
3 83 77 76
3 91 72 75
3 91 75 92
3 93 94 72
3 93 72 91
3 94 95 73
3 94 73 72
3 65 68 71
3 65 71 66
3 26 22 68
3 26 68 65
3 22 21 69
3 22 69 68
3 96 64 67
3 96 67 97
3 18 98 64
3 18 64 96
3 98 26 65
3 98 65 64
3 99 60 63
3 99 63 100
3 97 67 60
3 97 60 99
3 67 66 61
3 67 61 60
3 101 56 59
3 101 59 102
3 1 0 56
3 1 56 101
3 0 4 57
3 0 57 56
3 103 52 55
3 103 55 104
3 105 106 107
3 105 107 108
3 106 109 110
3 106 110 107
3 42 41 111
3 42 111 112
3 89 48 113
3 89 113 114
3 41 70 115
3 41 115 116
3 117 44 47
3 117 47 118
3 102 59 44
3 102 44 117
3 59 58 45
3 59 45 44
3 61 40 43
3 61 43 62
3 66 71 40
3 66 40 61
3 71 70 41
3 71 41 40
3 73 36 39
3 73 39 74
3 95 119 36
3 95 36 73
3 119 120 37
3 119 37 36
3 77 14 17
3 77 17 78
3 82 87 14
3 82 14 77
3 87 86 15
3 87 15 14
3 121 122 123
3 121 123 124
3 122 125 126
3 122 126 123
3 12 88 127
3 12 127 128
3 69 21 129
3 69 129 130
3 131 132 133
3 131 133 134
3 135 131 134
3 135 134 136
3 137 138 139
3 137 139 140
3 141 137 140
3 141 140 142
3 143 144 145
3 143 145 146
3 70 69 147
3 70 147 148
3 88 89 149
3 88 149 150
3 151 143 146
3 151 146 152
3 153 154 155
3 153 155 156
3 154 157 158
3 154 158 155
3 159 160 161
3 159 161 162
3 163 164 165
3 163 165 166
3 164 167 168
3 164 168 165
3 160 169 170
3 160 170 161
3 171 172 173
3 171 173 174
3 175 171 174
3 175 174 176
3 177 178 179
3 177 179 180
3 38 37 181
3 38 181 182
3 37 120 183
3 37 183 181
3 184 177 180
3 184 180 185
